<?xml version="1.0" standalone="no"?>
<!DOCTYPE svg PUBLIC "-//W3C//DTD SVG 20010904//EN"
 "http://www.w3.org/TR/2001/REC-SVG-20010904/DTD/svg10.dtd">
<svg version="1.0" xmlns="http://www.w3.org/2000/svg"
 width="601.000000pt" height="601.000000pt" viewBox="0 0 601.000000 601.000000"
 preserveAspectRatio="xMidYMid meet">
<metadata>
Created by potrace 1.11, written by Peter Selinger 2001-2013
</metadata>
<g transform="translate(0.000000,601.000000) scale(0.100000,-0.100000)"
fill="#000000" stroke="none">
<path d="M2880 4050 c0 -3 -19 -6 -43 -7 -33 -2 -160 -34 -222 -57 -5 -2 -20
-7 -32 -11 -13 -4 -23 -12 -23 -17 0 -5 -4 -7 -9 -4 -5 3 -28 -7 -52 -23 -24
-16 -46 -28 -50 -25 -4 2 -9 -3 -13 -11 -3 -8 -10 -15 -16 -15 -13 0 -123 -90
-165 -135 -100 -107 -170 -212 -214 -322 -18 -43 -35 -85 -40 -93 -4 -8 -7
-23 -5 -32 1 -10 -1 -18 -5 -18 -4 0 -8 -6 -9 -12 -1 -12 -5 -39 -18 -110 -10
-56 -12 -192 -3 -203 4 -6 4 -17 0 -24 -5 -7 -5 -29 0 -49 4 -20 6 -39 3 -43
-2 -4 0 -10 5 -13 5 -3 7 -15 4 -26 -3 -11 -1 -20 4 -20 5 0 10 -10 11 -22 3
-36 7 -52 13 -63 4 -5 12 -28 19 -50 19 -60 89 -195 101 -195 5 0 8 -4 5 -9
-3 -4 10 -26 29 -49 19 -22 35 -43 35 -46 0 -9 124 -130 170 -166 25 -19 48
-38 51 -43 3 -5 9 -8 13 -7 11 2 66 -34 66 -43 0 -4 4 -6 9 -2 5 3 16 -1 24
-9 8 -8 17 -12 21 -9 3 4 6 1 6 -5 0 -6 15 -14 33 -17 17 -4 37 -10 42 -14 16
-11 82 -31 175 -51 66 -14 117 -18 225 -15 77 1 149 5 160 8 11 3 47 12 80 21
33 10 65 18 70 19 36 8 135 51 135 58 0 5 7 9 16 9 24 0 173 103 235 162 127
122 264 341 285 457 3 13 9 32 15 43 5 10 8 18 5 18 -2 0 0 17 5 38 24 100 29
350 7 387 -3 6 -4 20 -3 33 1 12 -3 22 -8 22 -5 0 -7 6 -4 14 3 8 3 17 -1 20
-3 4 -7 14 -9 24 -8 36 -9 42 -16 48 -4 4 -7 13 -7 20 0 20 -92 206 -110 224
-3 3 -19 23 -35 45 -48 64 -67 86 -119 134 -27 25 -62 58 -78 73 -15 14 -28
24 -28 22 0 -3 -26 13 -59 35 -32 22 -61 37 -65 34 -3 -4 -6 -2 -6 4 0 10 -36
26 -52 24 -5 -1 -8 4 -8 10 0 6 -7 9 -15 5 -8 -3 -15 -2 -15 3 0 4 -28 16 -62
26 -35 9 -70 20 -78 23 -8 3 -24 6 -35 8 -11 1 -48 7 -83 13 -65 10 -262 11
-262 1z"/>
</g>
</svg>
